76b784964f1f13e34ff9288e327f1327 *tests/data/fate/pcm_dvd-16-5.1-48000.vob
591872 tests/data/fate/pcm_dvd-16-5.1-48000.vob
#tb 0: 1/48000
#media_type 0: audio
#codec_id 0: pcm_s16le
#sample_rate 0: 48000
#channel_layout_name 0: 5.1
0,          0,          0,      166,     1992, 0x00000000
0,        167,        167,      167,     2004, 0x00000000
0,        334,        334,      167,     2004, 0x00000000
0,        501,        501,      167,     2004, 0x00000000
0,        668,        668,      167,     2004, 0x00000000
0,        835,        835,      167,     2004, 0x00000000
0,       1002,       1002,      167,     2004, 0x00000000
0,       1169,       1169,      167,     2004, 0x00000000
0,       1336,       1336,      167,     2004, 0x00000000
0,       1503,       1503,      167,     2004, 0x00000000
0,       1670,       1670,      167,     2004, 0x00000000
0,       1837,       1837,      167,     2004, 0x00000000
0,       2004,       2004,      167,     2004, 0x00000000
0,       2171,       2171,      167,     2004, 0x00000000
0,       2338,       2338,      167,     2004, 0x00000000
0,       2505,       2505,      167,     2004, 0x00000000
0,       2672,       2672,      167,     2004, 0x00000000
0,       2839,       2839,      167,     2004, 0x00000000
0,       3006,       3006,      167,     2004, 0x00000000
0,       3173,       3173,      167,     2004, 0x00000000
0,       3340,       3340,      167,     2004, 0x00000000
0,       3507,       3507,      167,     2004, 0x00000000
0,       3674,       3674,      167,     2004, 0x00000000
0,       3841,       3841,      167,     2004, 0x00000000
0,       4008,       4008,      167,     2004, 0x00000000
0,       4175,       4175,      167,     2004, 0x00000000
0,       4342,       4342,      167,     2004, 0x00000000
0,       4509,       4509,      167,     2004, 0x00000000
0,       4676,       4676,      167,     2004, 0x00000000
0,       4843,       4843,      167,     2004, 0x00000000
0,       5010,       5010,      167,     2004, 0x00000000
0,       5177,       5177,      167,     2004, 0x00000000
0,       5344,       5344,      167,     2004, 0x00000000
0,       5511,       5511,      167,     2004, 0x00000000
0,       5678,       5678,      167,     2004, 0x00000000
0,       5845,       5845,      167,     2004, 0x00000000
0,       6012,       6012,      167,     2004, 0x00000000
0,       6179,       6179,      167,     2004, 0x00000000
0,       6346,       6346,      167,     2004, 0x00000000
0,       6513,       6513,      167,     2004, 0x00000000
0,       6680,       6680,      166,     1992, 0x00000000
0,       6847,       6847,      167,     2004, 0x00000000
0,       7014,       7014,      167,     2004, 0x00000000
0,       7181,       7181,      167,     2004, 0x00000000
0,       7348,       7348,      167,     2004, 0x00000000
0,       7515,       7515,      167,     2004, 0x00000000
0,       7682,       7682,      167,     2004, 0x00000000
0,       7849,       7849,      167,     2004, 0x00000000
0,       8016,       8016,      167,     2004, 0x00000000
0,       8183,       8183,      167,     2004, 0x00000000
0,       8349,       8349,      167,     2004, 0x00000000
0,       8516,       8516,      167,     2004, 0x00000000
0,       8683,       8683,      167,     2004, 0x00000000
0,       8850,       8850,      167,     2004, 0x00000000
0,       9017,       9017,      167,     2004, 0x00000000
0,       9184,       9184,      167,     2004, 0x00000000
0,       9351,       9351,      167,     2004, 0x00000000
0,       9518,       9518,       82,      984, 0x00000000
